<svg width="23" height="21" viewBox="0 0 23 21" fill="none" xmlns="http://www.w3.org/2000/svg">
<path d="M16.875 0.5C13.75 0.5 11.25 3.03906 11.25 6.125V8H1.875C0.820312 8 0 8.85938 0 9.875V18.625C0 19.6797 0.820312 20.5 1.875 20.5H15.625C16.6406 20.5 17.5 19.6797 17.5 18.625V9.875C17.5 8.85938 16.6406 8 15.625 8H13.125V6.20312C13.125 4.13281 14.7656 2.41406 16.8359 2.375C18.9062 2.375 20.625 4.05469 20.625 6.125V8.3125C20.625 8.85938 21.0156 9.25 21.5625 9.25C22.0703 9.25 22.5 8.85938 22.5 8.3125V6.20312C22.5 3.07812 20 0.539062 16.875 0.5ZM15.625 9.875V18.625H1.875V9.875H15.625ZM8.78906 16.5938C9.375 16.5938 9.88281 16.125 9.88281 15.5V13C9.88281 12.4141 9.375 11.9062 8.78906 11.9062C8.16406 11.9062 7.69531 12.4141 7.69531 13V15.5C7.69531 16.125 8.16406 16.5938 8.78906 16.5938Z" fill="black"/>
</svg>
